<svg width="558" height="19" viewBox="0 0 558 19" fill="none" xmlns="http://www.w3.org/2000/svg">
    <path d="M16.1756 17.7851L0.177002 17.9949L12.4989 4.33215L28.9975 4.11582L16.1756 17.7851Z" fill="#FF0000"/>
    <path d="M48.6794 17.8591L32.6808 18.0688L45.0027 4.40612L61.5013 4.1898L48.6794 17.8591Z" fill="#DCDCDC"/>
    <path d="M81.6765 17.4262L65.6779 17.636L77.9998 3.97326L94.4984 3.75694L81.6765 17.4262Z" fill="#FF0000"/>
    <path d="M115.674 16.9807L99.675 17.1904L111.997 3.52771L128.496 3.31138L115.674 16.9807Z" fill="white"/>
    <path d="M149.671 16.5349L133.672 16.7446L145.994 3.08191L162.493 2.86558L149.671 16.5349Z" fill="#FF0000"/>
    <path d="M182.668 16.1022L166.669 16.312L178.991 2.64929L195.49 2.43296L182.668 16.1022Z" fill="#DCDCDC"/>
    <path d="M215.665 15.6694L199.666 15.8792L211.988 2.21643L228.487 2.0001L215.665 15.6694Z" fill="#FF0000"/>
    <path d="M248.176 15.7851L232.177 15.9949L244.499 2.33215L260.998 2.11582L248.176 15.7851Z" fill="white"/>
    <path d="M280.679 15.8591L264.681 16.0688L277.003 2.40612L293.501 2.1898L280.679 15.8591Z" fill="#FF0000"/>
    <path d="M313.677 15.4262L297.678 15.636L310 1.97326L326.498 1.75694L313.677 15.4262Z" fill="#DCDCDC"/>
    <path d="M347.674 14.9807L331.675 15.1904L343.997 1.52771L360.496 1.31138L347.674 14.9807Z" fill="#FF0000"/>
    <path d="M381.671 14.5349L365.672 14.7446L377.994 1.08191L394.493 0.865579L381.671 14.5349Z" fill="white"/>
    <path d="M414.668 14.1022L398.669 14.312L410.991 0.649288L427.49 0.432961L414.668 14.1022Z" fill="#FF0000"/>
    <path d="M447.665 13.6694L431.666 13.8792L443.988 0.216427L460.487 0.000100007L447.665 13.6694Z" fill="#DCDCDC"/>
    <path d="M480.176 13.7851L464.177 13.9949L476.499 0.332149L492.998 0.115823L480.176 13.7851Z" fill="#FF0000"/>
    <path d="M545.176 14.6694L529.177 14.8792L541.499 1.21643L557.998 1.0001L545.176 14.6694Z" fill="#FF0000"/>
    <path d="M512.679 13.8591L496.681 14.0688L509.003 0.406124L525.501 0.189797L512.679 13.8591Z" fill="white"/>
</svg>
