<svg xmlns="http://www.w3.org/2000/svg" viewBox="0 0 200 200">
    <path transform="matrix(1,0,0,-1,656.1116,944.013)" d="M0 0C-1.72 2.605-4.634 4.173-7.756 4.173H-232.574C-234.158 4.173-235.724 4.031-237.258 3.753-237.306 3.827-237.354 3.901-237.403 3.977-242.131 11.118-250.151 15.215-259.406 15.215H-288.631C-292.35 15.215-295.71 12.999-297.175 9.581L-301.118 .376C-304.897 2.843-309.487 4.173-314.538 4.173H-476.923C-476.379 6.621-476.844 9.214-478.26 11.34-479.983 13.928-482.887 15.483-485.996 15.483H-518.901C-533.393 15.483-548.219 5.335-554.144-8.622L-572.997-52.687C-575.465-58.505-574.845-64.995-571.341-70.043L-549.757-101.18C-546.636-105.688-541.485-108.38-535.977-108.38-535.396-108.38-534.811-108.35-534.254-108.291-528.04-107.655-522.64-103.689-520.168-97.958L-510.531-75.717H-333.72L-337.711-85.033C-340.615-91.89-338.763-99.693-333.101-104.451-330.083-106.986-326.247-108.383-322.297-108.383-318.993-108.383-315.764-107.424-312.959-105.608-312.933-105.592-312.907-105.574-312.881-105.557L-268.07-75.922H-43.456C-36.371-75.922-23.333-73.226-15.625-55.171-15.548-54.99-15.477-54.807-15.411-54.621L.889-8.535C2-5.721 1.673-2.534 0 0"/>
    <path transform="matrix(1,0,0,-1,170.1156,939.33139)" d="M0 0H.002ZM0 3.015H-32.905C-44.225 3.015-56.299-5.319-60.99-16.371L-79.83-60.405C-81.25-63.752-80.918-67.445-78.944-70.289L-57.357-101.431C-55.691-103.837-52.934-105.274-49.98-105.274-49.669-105.274-49.355-105.258-49.048-105.226-45.693-104.882-42.657-102.65-41.316-99.541L-29.648-72.611H164.084L155.458-92.746C153.894-96.44 154.877-100.627 157.905-103.171 159.521-104.529 161.579-105.277 163.699-105.277 165.499-105.277 167.265-104.75 168.807-103.752L215.583-72.816H442.54C448.849-72.816 457.556-70.037 463.208-56.795 463.221-56.766 463.233-56.736 463.243-56.706L479.606-10.443C479.697-10.249 479.749-10.032 479.749-9.803 479.749-8.971 479.075-8.296 478.243-8.296H478.24 253.422C250.223-8.296 247.227-9.076 244.486-10.619 244.025-8.588 243.227-6.707 242.099-5.004 238.839-.079 233.186 2.746 226.59 2.746H197.365C196.762 2.746 196.217 2.387 195.979 1.833L186.762-19.681C186.384-18.096 185.8-16.78 185.217-15.753 183.632-12.968 179.738-8.296 171.458-8.296H-2.441L1.355 .842 1.39 .926C1.585 1.391 1.534 1.923 1.254 2.343 .975 2.763 .504 3.015 0 3.015M478.24-9.803H478.243M0 1.508-.037 1.421-4.7-9.803H171.458C178.975-9.803 182.484-13.997 183.906-16.497 185.212-18.797 186.34-22.357 185.23-27.083L197.365 1.239H226.59C232.671 1.239 237.866-1.34 240.842-5.836 242.274-7.998 243.113-10.484 243.364-13.14 246.873-10.55 250.458-9.803 253.422-9.803H478.24L478.203-9.891 461.822-56.203C456.492-68.688 448.395-71.31 442.54-71.31H215.13L167.988-102.486C166.69-103.326 165.207-103.77 163.699-103.77 161.933-103.77 160.219-103.147 158.875-102.018 156.357-99.901 155.541-96.415 156.844-93.34L166.37-71.104H-30.637L-42.701-98.944C-43.829-101.56-46.382-103.438-49.204-103.727-49.463-103.754-49.724-103.767-49.98-103.767-52.439-103.767-54.733-102.572-56.119-100.572L-77.706-69.43C-79.383-67.014-79.659-63.861-78.444-60.998L-59.602-16.96C-55.133-6.432-43.656 1.508-32.905 1.508H0" fill="#ba0000"/>
    <path transform="matrix(1,0,0,-1,120.9007,1035.4613)" d="M0 0 19.978 46.105H7.221L-1.021 27.142-8.06 37.296 8.726 76.488C9.253 77.733 10.69 78.742 11.935 78.742H21.031L14.464 62.439 22.263 51.266 38.581 90.541H16.31C8.489 90.541-.543 84.2-3.863 76.379L-22.696 32.361C-22.958 31.743-22.945 31.154-22.66 30.742L-1.07-.402C-.854-.713-.198-.467 0 0" fill="#ffffff"/>
    <path transform="matrix(1,0,0,-1,392.18,959.8275)" d="M0 0-2.869-6.854-21.279-19.035-12.173 2.348H-1.351C-.055 2.348 .55 1.297 0 0M4.526 14.639H-20.021L-58.687-75.611C-58.893-76.097-58.428-76.354-57.929-76.031L-41.213-65.226-28.232-35.414-9.821-23.234-22.555-52.461-5.593-41.496C-4.929-41.067-4.393-40.452-4.119-39.807L3.122-23.521C4.603-20.03 2.975-17.201-.515-17.201L8.203-11.55 13.016-.113C16.475 8.034 12.673 14.639 4.526 14.639" fill="#ba0000"/>
    <path transform="matrix(1,0,0,-1,154.7767,1003.3392)" d="M0 0 7.655 18.059H26.564L18.909 0H31.733L51.755 47.108H38.931L31.407 29.443H12.498L20.022 47.108H7.198L-12.824 0Z" fill="#ffffff"/>
    <path transform="matrix(1,0,0,-1,232.8705,1003.3392)" d="M0 0 4.843 11.385H-21.59L-18.45 18.778H5.039L9.095 28.33H-14.393L-11.253 35.724H15.18L20.022 47.108H-19.234L-39.256 0Z" fill="#ffffff"/>
    <path transform="matrix(1,0,0,-1,268.2098,967.6155)" d="M0 0H16.424C16.772 0 16.946-.175 16.946-.523 16.946-.654 16.924-.764 16.88-.851L12.758-10.534C12.498-11.101 12.105-11.385 11.581-11.385H-4.841ZM-15.179-35.724-9.487-22.245H11.188C14.199-22.245 16.968-21.198 19.498-19.105 22.027-17.011 23.924-14.482 25.19-11.516L30.359 .654C30.969 2.05 31.276 3.424 31.276 4.776 31.276 6.739 30.653 8.331 29.411 9.553 28.167 10.773 26.433 11.385 24.208 11.385H-7.981L-28.003-35.724Z" fill="#ffffff"/>
    <path transform="matrix(1,0,0,-1,333.9178,969.2513)" d="M0 0-5.561-13.15H-23.946L-18.385 0C-17.906 1.09-17.12 1.636-16.029 1.636H-.917C.174 1.636 .479 1.09 0 0M13.937 9.912C12.758 11.984 10.665 13.021 7.655 13.021H-18.188C-23.162 13.021-27.176 9.443-30.228 2.29L-45.669-34.088H-32.845L-28.003-22.703H-9.618L-14.459-34.088H-1.635L13.806 2.29C15.069 5.3 15.114 7.84 13.937 9.912" fill="#ffffff"/>
    <path transform="matrix(1,0,0,-1,441.806,969.30789)" d="M0 0-5.585-13.208H-24.051L-18.465 0C-17.984 1.095-17.195 1.643-16.099 1.643H-.921C.175 1.643 .481 1.095 0 0M13.997 9.955C12.813 12.036 10.71 13.077 7.688 13.077H-18.268C-23.263 13.077-27.294 9.484-30.359 2.3L-45.868-34.236H-32.988L-28.125-22.802H-9.66L-14.522-34.236H-1.643L13.866 2.3C15.135 5.323 15.18 7.874 13.997 9.955" fill="#ba0000"/>
    <path transform="matrix(1,0,0,-1,485.1092,991.5843)" d="M0 0C-.131-.352-.372-.525-.724-.525H-18.07C-18.642-.525-18.816-.242-18.597 .328L-8.937 23.065C-8.673 23.634-8.258 23.919-7.688 23.919H9.66C10.01 23.919 10.098 23.744 9.923 23.394L7.886 18.466H20.765L25.234 29.045C25.979 30.796 26 32.286 25.3 33.514 24.598 34.739 23.371 35.354 21.62 35.354H-7.754C-10.776 35.354-13.449 34.313-15.772 32.231-18.094 30.15-19.89 27.6-21.16 24.576L-32.068-1.183C-33.382-4.206-33.437-6.759-32.232-8.838-31.027-10.92-28.914-11.96-25.89-11.96H1.511C3.263-11.96 5.016-11.347 6.768-10.12 8.52-8.894 9.769-7.404 10.513-5.651L14.982 4.929H2.103Z" fill="#ba0000"/>
    <path transform="matrix(1,0,0,-1,521.5145,956.2308)" d="M0 0-20.109-47.313H-7.229L12.879 0Z" fill="#ba0000"/>
    <path transform="matrix(1,0,0,-1,575.0692,956.2308)" d="M0 0-11.96-28.125-18.859 0H-31.739L-51.848-47.313H-38.969L-27.008-19.188-19.451-47.313H-7.228L12.879 0Z" fill="#ba0000"/>
    <path transform="matrix(1,0,0,-1,604.0477,968.51889)" d="M0 0C.263 .568 .679 .854 1.248 .854H28.717L33.579 12.288H1.84C-.964 12.288-3.669 11.291-6.276 9.298-8.882 7.304-10.866 4.709-12.223 1.511L-25.037-28.717C-25.783-30.47-25.804-31.959-25.103-33.186-24.402-34.412-23.176-35.025-21.423-35.025H8.608C14.039-35.025 18.289-31.434 21.355-24.248L29.176-5.783H6.702L2.628-15.312H12.353L9.2-22.737C8.98-23.308 8.542-23.591 7.886-23.591H-9.462C-9.814-23.591-9.923-23.417-9.792-23.065Z" fill="#ba0000"/>
</svg>